:SAMPLES-PER-SECOND 30
:FULLY-SPECIFIED
:DEGREES
668
root  -58.8302 36.7944 -0.762223 13.8048 -76.6672 -9.33714
RightUpLeg  -39.6829 -18.4738 2.71921
RightLeg  41.0679 6.82421 6.03761
RightFoot  -3.24848 0.238018 -3.67166
RightToes  -8.73116e-010 0 -3.6325e-017
Spine  102.583 -16.179 9.48198
Spine1  -11.8735 -3.54767 -2.75785
HEad  -47.8336 -5.79395 5.95312
LeftShoulder1  -0.0910117 -15.085 10.2187
LeftArm  -79.2564 -61.9767 5.32616
LeftForeArm  -10.3879 -18.1971 1.06372
LeftHand  0.0119373 2.48492 -1.03064
RightShoulder  -0.0035383 10.0076 -9.71535
RightArm  -60.5947 57.7596 -14.9493
RightForeArm  -37.797 -1.3174 -5.62926
RightHand  -0.408252 9.89426 -3.49648
LeftUpLeg  -39.6883 -0.801126 5.91842
LeftLeg  44.6567 -1.6657 -1.36635
LeftFoot  -6.81818 -0.0129133 1.38793
LeftToes  -5.63919e-011 3.32596e-011 1.92487e-011
669
root  -58.7112 36.7505 -0.614783 13.5667 -77.1222 -8.88925
RightUpLeg  -40.1997 -18.3259 2.42339
RightLeg  41.1578 7.01374 6.23173
RightFoot  -2.8361 0.24949 -3.61115
RightToes  -8.73116e-010 0 -3.6325e-017
Spine  101.893 -15.7327 9.95523
Spine1  -11.3135 -2.89625 -1.87491
HEad  -48.0818 -6.31941 5.35528
LeftShoulder1  -0.168119 -15.1804 10.6884
LeftArm  -78.2785 -62.484 4.77054
LeftForeArm  -12.635 -17.468 2.0236
LeftHand  0.0239033 2.18396 -1.36403
RightShoulder  0.0172378 10.4995 -9.54075
RightArm  -59.313 56.4477 -17.748
RightForeArm  -37.8309 -1.72773 -4.87372
RightHand  -0.511548 9.46483 -4.3797
LeftUpLeg  -40.2162 -0.440382 5.44184
LeftLeg  45.0578 -1.64704 -1.36864
LeftFoot  -6.5631 -0.0134563 1.42318
LeftToes  -5.63919e-011 3.32596e-011 1.92487e-011
670
root  -58.5509 36.6822 -0.411127 14.9416 -77.2356 -9.68463
RightUpLeg  -41.1311 -18.3806 2.51401
RightLeg  41.1165 7.2038 6.39664
RightFoot  -2.44507 0.241089 -3.30792
RightToes  -8.73116e-010 0 -3.6325e-017
Spine  100.899 -16.2854 10.4615
Spine1  -11.7361 -3.12199 -2.32901
HEad  -47.3787 -6.03889 5.29953
LeftShoulder1  -0.172081 -15.3485 10.7029
LeftArm  -73.4238 -62.7017 4.71211
LeftForeArm  -16.6923 -16.242 2.97166
LeftHand  0.0116233 1.92086 -0.813778
RightShoulder  0.0371614 10.4529 -9.37747
RightArm  -58.2832 56.5613 -17.8051
RightForeArm  -34.7822 -1.38208 -4.54186
RightHand  -0.525964 8.69203 -4.71298
LeftUpLeg  -41.269 -0.266858 5.20241
LeftLeg  45.418 -1.64702 -1.3886
LeftFoot  -6.42652 -0.0338181 1.75898
LeftToes  -5.63919e-011 3.32596e-011 1.92487e-011
671
root  -58.3229 36.6123 -0.179803 16.2356 -77.2995 -10.2371
RightUpLeg  -42.2394 -18.3909 2.52686
RightLeg  40.8682 7.38316 6.50424
RightFoot  -1.92958 0.219518 -2.82875
RightToes  -8.73116e-010 0 -3.6325e-017
Spine  98.7399 -16.3089 11.3572
Spine1  -10.7916 -2.86908 -1.71564
HEad  -47.9118 -6.57188 4.98682
LeftShoulder1  -0.178069 -15.3574 10.7397
LeftArm  -75.6523 -63.4615 3.24286
LeftForeArm  -12.4005 -16.5645 3.13385
LeftHand  0.00407897 2.82049 -1.03612
RightShoulder  0.0592022 10.4168 -9.19627
RightArm  -57.3278 56.5707 -20.1965
RightForeArm  -32.9965 -1.42138 -3.69097
RightHand  -0.694956 7.98019 -6.38597
LeftUpLeg  -42.5058 -0.261748 4.82586
LeftLeg  45.5801 -1.46168 -1.19645
LeftFoot  -6.19667 -0.0636624 2.23414
LeftToes  -5.63919e-011 3.32596e-011 1.92487e-011
672
root  -58.0697 36.6624 0.0321717 15.7353 -78.0432 -9.9928
RightUpLeg  -41.789 -17.3514 1.68902
RightLeg  39.8213 7.36593 6.25154
RightFoot  -1.15329 0.16591 -1.94509
RightToes  -8.73116e-010 0 -3.6325e-017
Spine  97.7578 -16.1501 11.1274
Spine1  -10.4314 -3.12231 -2.17149
HEad  -47.1918 -6.32381 5.25008
LeftShoulder1  -0.0206075 -15.2491 9.78174
LeftArm  -70.3848 -64.4942 1.90708
LeftForeArm  -15.204 -15.4433 3.65753
LeftHand  -0.0462351 3.039 1.20744
RightShoulder  0.122759 9.86222 -8.61939
RightArm  -57.8794 58.507 -19.1366
RightForeArm  -29.9632 -1.23403 -3.69921
RightHand  -0.718135 7.61433 -6.7405
LeftUpLeg  -42.1255 0.373238 4.08185
LeftLeg  44.984 -1.4403 -1.143
LeftFoot  -5.65002 -0.109804 2.90071
LeftToes  -5.63919e-011 3.32596e-011 1.92487e-011
673
root  -57.7599 36.6965 0.282091 14.8868 -78.6137 -9.09805
RightUpLeg  -41.7632 -16.7843 0.926136
RightLeg  38.7188 7.50154 6.12672
RightFoot  -0.0916513 0.142029 -1.44889
RightToes  -8.73116e-010 0 -3.6325e-017
Spine  95.7672 -16.0113 11.3844
Spine1  -10.4043 -3.14171 -2.68941
HEad  -45.9753 -6.52666 5.46074
LeftShoulder1  0.298077 -14.8038 7.78888
LeftArm  -62.7823 -67.2762 -3.49312
LeftForeArm  -12.3423 -13.4495 4.80069
LeftHand  -0.0117452 3.60543 -0.927158
RightShoulder  0.344558 9.24329 -6.58096
RightArm  -56.0274 60.6034 -15.2964
RightForeArm  -26.4554 -1.04069 -3.56813
RightHand  -0.882919 8.27736 -7.85673
LeftUpLeg  -42.1182 0.957101 3.17039
LeftLeg  44.2301 -1.52855 -1.19914
LeftFoot  -5.12092 -0.142852 3.19131
LeftToes  -5.63919e-011 3.32596e-011 1.92487e-011
674
root  -57.4235 36.7438 0.578259 13.9939 -79.3246 -8.66779
RightUpLeg  -41.0615 -15.8779 -0.0658274
RightLeg  37.338 7.52654 5.85062
RightFoot  1.05824 0.0791515 -0.664728
RightToes  -8.73116e-010 0 -3.6325e-017
Spine  93.24 -15.4742 11.6535
Spine1  -9.38206 -2.94402 -2.69448
HEad  -46.2257 -7.20803 5.41702
LeftShoulder1  0.616902 -14.2433 5.68481
LeftArm  -50.0947 -69.7783 -14.2537
LeftForeArm  -16.3158 -11.0175 4.82912
LeftHand  -0.0613242 2.18072 1.99237
RightShoulder  0.584647 8.91259 -4.27232
RightArm  -50.5738 62.2067 -8.95616
RightForeArm  -22.7884 -1.67343 -2.96653
RightHand  -0.961991 8.27917 -8.50256
LeftUpLeg  -41.5525 1.80736 2.15143
LeftLeg  43.428 -1.66321 -1.2953
LeftFoot  -4.47961 -0.215627 4.04365
LeftToes  -5.63919e-011 3.32596e-011 1.92487e-011
675
root  -57.0682 36.7212 0.904886 13.2007 -79.8118 -7.6015
RightUpLeg  -41.3553 -15.1923 -0.967837
RightLeg  36.2201 7.50829 5.60116
RightFoot  2.15465 -0.0182823 0.283785
RightToes  -8.73116e-010 0 -3.6325e-017
Spine  88.9586 -14.8988 11.9062
Spine1  -6.76192 -3.13663 -2.58119
HEad  -47.3638 -6.80571 4.88853
LeftShoulder1  0.890493 -13.7376 3.73181
LeftArm  -38.4249 -70.0985 -24.2121
LeftForeArm  -20.2816 -8.1333 3.7185
LeftHand  -0.0804203 2.82607 3.03311
RightShoulder  0.75777 8.52773 -2.45974
RightArm  -42.4026 63.6302 0.231648
RightForeArm  -22.5452 -2.95586 -1.91499
RightHand  -1.16073 7.81507 -10.4795
LeftUpLeg  -41.9469 2.55097 0.973554
LeftLeg  42.7173 -1.8444 -1.4384
LeftFoot  -4.00026 -0.293217 4.95086
LeftToes  -5.63919e-011 3.32596e-011 1.92487e-011
676
root  -56.7014 36.8426 1.27684 13.7564 -80.6723 -9.6834
RightUpLeg  -39.0158 -14.1607 -1.81077
RightLeg  33.7889 7.76034 5.3064
RightFoot  3.48629 -0.105696 0.988621
RightToes  -8.73116e-010 0 -3.6325e-017
Spine  86.2603 -14.7546 11.861
Spine1  -4.76927 -3.29571 -3.41908
HEad  -48.5793 -7.04296 4.47587
LeftShoulder1  1.32462 -12.9123 0.43811
LeftArm  -25.8235 -68.7577 -36.5071
LeftForeArm  -19.8386 -5.67174 1.77871
LeftHand  -0.0816715 2.93511 3.22214
RightShoulder  0.965409 8.26405 -0.264054
RightArm  -30.313 62.6013 14.2347
RightForeArm  -20.3941 -2.84864 -0.834942
RightHand  -0.922062 7.4878 -8.58947
LeftUpLeg  -40.0536 3.66291 0.362474
LeftLeg  41.5198 -1.87548 -1.39416
LeftFoot  -3.55823 -0.360079 5.59813
LeftToes  -5.63919e-011 3.32596e-011 1.92487e-011
677
root  -56.3621 37.0299 1.64203 13.7186 -82.5011 -10.2258
RightUpLeg  -37.3711 -12.0343 -2.95285
RightLeg  30.6437 7.77947 4.7041
RightFoot  5.15551 -0.267145 2.09152
RightToes  -8.73116e-010 0 -3.6325e-017
Spine  83.4835 -12.7508 11.3858
Spine1  -4.48823 -2.31466 -2.96703
HEad  -48.7368 -7.90522 3.18665
LeftShoulder1  1.69083 -12.4011 -2.45691
LeftArm  -13.9993 -64.3875 -50.3491
LeftForeArm  -15.3062 -4.26628 0.361935
LeftHand  -0.0724013 3.00712 2.80958
RightShoulder  1.23893 7.41015 3.3589
RightArm  -17.5632 58.7896 26.4997
RightForeArm  -20.8877 -1.55322 1.196
RightHand  -1.27744 9.06852 -10.6043
LeftUpLeg  -38.638 5.91123 -0.806344
LeftLeg  39.5466 -2.13042 -1.51501
LeftFoot  -2.60569 -0.485775 6.55679
LeftToes  -5.63919e-011 3.32596e-011 1.92487e-011
678
root  -55.9905 37.2348 2.06675 14.6111 -84.1226 -11.4512
RightUpLeg  -35.778 -10.8497 -3.72257
RightLeg  26.7736 8.5913 4.45045
RightFoot  7.30538 -0.447659 3.01161
RightToes  -8.73116e-010 0 -3.6325e-017
Spine  79.877 -11.1762 10.8654
Spine1  -3.65465 -1.83198 -2.46712
HEad  -48.8601 -8.34424 1.49762
LeftShoulder1  2.04492 -11.1174 -6.38422
LeftArm  -8.21554 -57.5215 -58.4555
LeftForeArm  -8.40211 -3.59681 -0.771967
LeftHand  -0.0615707 3.4167 2.59919
RightShoulder  1.36435 6.22721 6.28999
RightArm  -7.44335 54.0615 35.8939
RightForeArm  -18.4397 -0.345732 3.09178
RightHand  -1.10505 8.37145 -9.66137
LeftUpLeg  -37.5118 7.30444 -1.78197
LeftLeg  37.2917 -1.99271 -1.2606
LeftFoot  -1.3499 -0.632785 7.32256
LeftToes  -5.63919e-011 3.32596e-011 1.92487e-011
